<?xml version="1.0"?>
<!-- Generated by SVGo -->
<svg width="438.627mm" height="133.827mm"
     viewBox="0.000 0.000 438.627 133.827"
     xmlns="http://www.w3.org/2000/svg" 
     xmlns:xlink="http://www.w3.org/1999/xlink">
<polygon points="433.627,128.827 5.001,128.827 5.001,5.001 433.627,5.001" style="fill:none;stroke-width:0.050000mm;stroke:black"/>
<polygon points="128.968,112.301 128.968,117.001 89.344,117.001 89.344,113.771 87.619,113.771 87.619,112.851 84.319,112.851 84.319,113.771 82.594,113.771 82.594,117.001 81.769,117.001 81.769,119.801 82.594,119.801 82.594,126.071 84.319,126.071 84.319,127.051 87.619,127.051 87.619,126.071 89.344,126.071 89.344,121.601 128.968,121.601 128.968,126.301 142.969,126.301 142.969,121.601 182.594,121.601 182.594,126.071 184.319,126.071 184.319,127.051 187.619,127.051 187.619,126.071 189.344,126.071 189.344,119.801 190.169,119.801 190.169,117.001 189.344,117.001 189.344,113.771 187.619,113.771 187.619,112.851 184.319,112.851 184.319,113.771 182.594,113.771 182.594,117.001 142.969,117.001 142.969,112.301" style="fill:none;stroke-width:0.050000mm;stroke:black"/>
<polygon points="369.476,112.301 369.476,117.001 367.951,117.001 367.951,113.771 366.226,113.771 366.226,112.851 362.926,112.851 362.926,113.771 361.201,113.771 361.201,117.001 360.376,117.001 360.376,119.801 361.201,119.801 361.201,126.071 362.926,126.071 362.926,127.051 366.226,127.051 366.226,126.071 367.951,126.071 367.951,121.601 369.476,121.601 369.476,126.301 383.476,126.301 383.476,121.601 385.001,121.601 385.001,126.071 386.726,126.071 386.726,127.051 390.026,127.051 390.026,126.071 391.751,126.071 391.751,119.801 392.576,119.801 392.576,117.001 391.751,117.001 391.751,113.771 390.026,113.771 390.026,112.851 386.726,112.851 386.726,113.771 385.001,113.771 385.001,117.001 383.476,117.001 383.476,112.301" style="fill:none;stroke-width:0.050000mm;stroke:black"/>
<polygon points="9.907,112.301 9.907,126.301 23.907,126.301 23.907,112.301" style="fill:none;stroke-width:0.050000mm;stroke:black"/>
<polygon points="33.719,112.301 33.719,126.301 47.719,126.301 47.719,112.301" style="fill:none;stroke-width:0.050000mm;stroke:black"/>
<polygon points="57.532,112.301 57.532,126.301 71.532,126.301 71.532,112.301" style="fill:none;stroke-width:0.050000mm;stroke:black"/>
<polygon points="200.407,112.301 200.407,126.301 214.407,126.301 214.407,112.301" style="fill:none;stroke-width:0.050000mm;stroke:black"/>
<polygon points="224.219,112.301 224.219,126.301 238.219,126.301 238.219,112.301" style="fill:none;stroke-width:0.050000mm;stroke:black"/>
<polygon points="248.032,112.301 248.032,126.301 262.032,126.301 262.032,112.301" style="fill:none;stroke-width:0.050000mm;stroke:black"/>
<polygon points="271.844,112.301 271.844,126.301 285.844,126.301 285.844,112.301" style="fill:none;stroke-width:0.050000mm;stroke:black"/>
<polygon points="298.038,112.301 298.038,126.301 312.038,126.301 312.038,112.301" style="fill:none;stroke-width:0.050000mm;stroke:black"/>
<polygon points="317.088,112.301 317.088,126.301 331.088,126.301 331.088,112.301" style="fill:none;stroke-width:0.050000mm;stroke:black"/>
<polygon points="336.138,112.301 336.138,126.301 350.138,126.301 350.138,112.301" style="fill:none;stroke-width:0.050000mm;stroke:black"/>
<polygon points="398.051,112.301 398.051,126.301 412.051,126.301 412.051,112.301" style="fill:none;stroke-width:0.050000mm;stroke:black"/>
<polygon points="423.601,93.676 423.601,94.501 417.331,94.501 417.331,96.226 416.351,96.226 416.351,99.526 417.331,99.526 417.331,101.251 421.801,101.251 421.801,102.776 417.101,102.776 417.101,116.776 421.801,116.776 421.801,118.301 417.331,118.301 417.331,120.026 416.351,120.026 416.351,123.326 417.331,123.326 417.331,125.051 423.601,125.051 423.601,125.876 426.401,125.876 426.401,125.051 429.631,125.051 429.631,123.326 430.551,123.326 430.551,120.026 429.631,120.026 429.631,118.301 426.401,118.301 426.401,116.776 431.101,116.776 431.101,102.776 426.401,102.776 426.401,101.251 429.631,101.251 429.631,99.526 430.551,99.526 430.551,96.226 429.631,96.226 429.631,94.501 426.401,94.501 426.401,93.676" style="fill:none;stroke-width:0.050000mm;stroke:black"/>
<polygon points="257.556,93.251 257.556,97.951 256.032,97.951 256.032,94.721 254.307,94.721 254.307,93.801 251.007,93.801 251.007,94.721 249.282,94.721 249.282,97.951 248.457,97.951 248.457,100.751 249.282,100.751 249.282,107.021 251.007,107.021 251.007,108.001 254.307,108.001 254.307,107.021 256.032,107.021 256.032,102.551 257.556,102.551 257.556,107.251 271.557,107.251 271.557,102.551 273.082,102.551 273.082,107.021 274.807,107.021 274.807,108.001 278.107,108.001 278.107,107.021 279.832,107.021 279.832,100.751 280.657,100.751 280.657,97.951 279.832,97.951 279.832,94.721 278.107,94.721 278.107,93.801 274.807,93.801 274.807,94.721 273.082,94.721 273.082,97.951 271.557,97.951 271.557,93.251" style="fill:none;stroke-width:0.050000mm;stroke:black"/>
<polygon points="9.907,93.251 9.907,107.251 23.907,107.251 23.907,93.251" style="fill:none;stroke-width:0.050000mm;stroke:black"/>
<polygon points="31.338,93.251 31.338,107.251 45.338,107.251 45.338,93.251" style="fill:none;stroke-width:0.050000mm;stroke:black"/>
<polygon points="50.388,93.251 50.388,107.251 64.388,107.251 64.388,93.251" style="fill:none;stroke-width:0.050000mm;stroke:black"/>
<polygon points="69.438,93.251 69.438,107.251 83.438,107.251 83.438,93.251" style="fill:none;stroke-width:0.050000mm;stroke:black"/>
<polygon points="88.488,93.251 88.488,107.251 102.488,107.251 102.488,93.251" style="fill:none;stroke-width:0.050000mm;stroke:black"/>
<polygon points="107.538,93.251 107.538,107.251 121.538,107.251 121.538,93.251" style="fill:none;stroke-width:0.050000mm;stroke:black"/>
<polygon points="126.588,93.251 126.588,107.251 140.588,107.251 140.588,93.251" style="fill:none;stroke-width:0.050000mm;stroke:black"/>
<polygon points="145.638,93.251 145.638,107.251 159.638,107.251 159.638,93.251" style="fill:none;stroke-width:0.050000mm;stroke:black"/>
<polygon points="164.688,93.251 164.688,107.251 178.688,107.251 178.688,93.251" style="fill:none;stroke-width:0.050000mm;stroke:black"/>
<polygon points="183.738,93.251 183.738,107.251 197.738,107.251 197.738,93.251" style="fill:none;stroke-width:0.050000mm;stroke:black"/>
<polygon points="202.788,93.251 202.788,107.251 216.788,107.251 216.788,93.251" style="fill:none;stroke-width:0.050000mm;stroke:black"/>
<polygon points="221.838,93.251 221.838,107.251 235.838,107.251 235.838,93.251" style="fill:none;stroke-width:0.050000mm;stroke:black"/>
<polygon points="317.088,93.251 317.088,107.251 331.088,107.251 331.088,93.251" style="fill:none;stroke-width:0.050000mm;stroke:black"/>
<polygon points="359.951,93.251 359.951,107.251 373.951,107.251 373.951,93.251" style="fill:none;stroke-width:0.050000mm;stroke:black"/>
<polygon points="379.001,93.251 379.001,107.251 393.001,107.251 393.001,93.251" style="fill:none;stroke-width:0.050000mm;stroke:black"/>
<polygon points="398.051,93.251 398.051,107.251 412.051,107.251 412.051,93.251" style="fill:none;stroke-width:0.050000mm;stroke:black"/>
<polygon points="14.669,74.201 14.669,88.201 28.669,88.201 28.669,74.201" style="fill:none;stroke-width:0.050000mm;stroke:black"/>
<polygon points="40.863,74.201 40.863,88.201 54.863,88.201 54.863,74.201" style="fill:none;stroke-width:0.050000mm;stroke:black"/>
<polygon points="59.913,74.201 59.913,88.201 73.913,88.201 73.913,74.201" style="fill:none;stroke-width:0.050000mm;stroke:black"/>
<polygon points="78.963,74.201 78.963,88.201 92.963,88.201 92.963,74.201" style="fill:none;stroke-width:0.050000mm;stroke:black"/>
<polygon points="98.013,74.201 98.013,88.201 112.013,88.201 112.013,74.201" style="fill:none;stroke-width:0.050000mm;stroke:black"/>
<polygon points="117.063,74.201 117.063,88.201 131.063,88.201 131.063,74.201" style="fill:none;stroke-width:0.050000mm;stroke:black"/>
<polygon points="136.113,74.201 136.113,88.201 150.113,88.201 150.113,74.201" style="fill:none;stroke-width:0.050000mm;stroke:black"/>
<polygon points="155.163,74.201 155.163,88.201 169.163,88.201 169.163,74.201" style="fill:none;stroke-width:0.050000mm;stroke:black"/>
<polygon points="174.213,74.201 174.213,88.201 188.213,88.201 188.213,74.201" style="fill:none;stroke-width:0.050000mm;stroke:black"/>
<polygon points="193.263,74.201 193.263,88.201 207.263,88.201 207.263,74.201" style="fill:none;stroke-width:0.050000mm;stroke:black"/>
<polygon points="212.313,74.201 212.313,88.201 226.313,88.201 226.313,74.201" style="fill:none;stroke-width:0.050000mm;stroke:black"/>
<polygon points="231.363,74.201 231.363,88.201 245.363,88.201 245.363,74.201" style="fill:none;stroke-width:0.050000mm;stroke:black"/>
<polygon points="250.413,74.201 250.413,88.201 264.413,88.201 264.413,74.201" style="fill:none;stroke-width:0.050000mm;stroke:black"/>
<polygon points="359.951,74.201 359.951,88.201 373.951,88.201 373.951,74.201" style="fill:none;stroke-width:0.050000mm;stroke:black"/>
<polygon points="379.001,74.201 379.001,88.201 393.001,88.201 393.001,74.201" style="fill:none;stroke-width:0.050000mm;stroke:black"/>
<polygon points="398.051,74.201 398.051,88.201 412.051,88.201 412.051,74.201" style="fill:none;stroke-width:0.050000mm;stroke:black"/>
<polygon points="278.344,55.576 278.344,56.401 272.074,56.401 272.074,58.126 271.094,58.126 271.094,61.426 272.074,61.426 272.074,63.151 276.544,63.151 276.544,64.676 271.844,64.676 271.844,78.676 276.544,78.676 276.544,80.201 272.074,80.201 272.074,81.926 271.094,81.926 271.094,85.226 272.074,85.226 272.074,86.951 278.344,86.951 278.344,87.776 281.144,87.776 281.144,86.951 284.374,86.951 284.374,85.226 285.294,85.226 285.294,81.926 284.374,81.926 284.374,80.201 281.144,80.201 281.144,78.676 285.844,78.676 285.844,64.676 281.144,64.676 281.144,63.151 284.374,63.151 284.374,61.426 285.294,61.426 285.294,58.126 284.374,58.126 284.374,56.401 281.144,56.401 281.144,55.576" style="fill:none;stroke-width:0.050000mm;stroke:black"/>
<polygon points="423.601,55.576 423.601,56.401 417.331,56.401 417.331,58.126 416.351,58.126 416.351,61.426 417.331,61.426 417.331,63.151 421.801,63.151 421.801,64.676 417.101,64.676 417.101,78.676 421.801,78.676 421.801,80.201 417.331,80.201 417.331,81.926 416.351,81.926 416.351,85.226 417.331,85.226 417.331,86.951 423.601,86.951 423.601,87.776 426.401,87.776 426.401,86.951 429.631,86.951 429.631,85.226 430.551,85.226 430.551,81.926 429.631,81.926 429.631,80.201 426.401,80.201 426.401,78.676 431.101,78.676 431.101,64.676 426.401,64.676 426.401,63.151 429.631,63.151 429.631,61.426 430.551,61.426 430.551,58.126 429.631,58.126 429.631,56.401 426.401,56.401 426.401,55.576" style="fill:none;stroke-width:0.050000mm;stroke:black"/>
<polygon points="12.288,55.151 12.288,69.151 26.288,69.151 26.288,55.151" style="fill:none;stroke-width:0.050000mm;stroke:black"/>
<polygon points="36.101,55.151 36.101,69.151 50.101,69.151 50.101,55.151" style="fill:none;stroke-width:0.050000mm;stroke:black"/>
<polygon points="55.151,55.151 55.151,69.151 69.151,69.151 69.151,55.151" style="fill:none;stroke-width:0.050000mm;stroke:black"/>
<polygon points="74.201,55.151 74.201,69.151 88.201,69.151 88.201,55.151" style="fill:none;stroke-width:0.050000mm;stroke:black"/>
<polygon points="93.251,55.151 93.251,69.151 107.251,69.151 107.251,55.151" style="fill:none;stroke-width:0.050000mm;stroke:black"/>
<polygon points="112.301,55.151 112.301,69.151 126.301,69.151 126.301,55.151" style="fill:none;stroke-width:0.050000mm;stroke:black"/>
<polygon points="131.351,55.151 131.351,69.151 145.351,69.151 145.351,55.151" style="fill:none;stroke-width:0.050000mm;stroke:black"/>
<polygon points="150.401,55.151 150.401,69.151 164.401,69.151 164.401,55.151" style="fill:none;stroke-width:0.050000mm;stroke:black"/>
<polygon points="169.451,55.151 169.451,69.151 183.451,69.151 183.451,55.151" style="fill:none;stroke-width:0.050000mm;stroke:black"/>
<polygon points="188.501,55.151 188.501,69.151 202.501,69.151 202.501,55.151" style="fill:none;stroke-width:0.050000mm;stroke:black"/>
<polygon points="207.551,55.151 207.551,69.151 221.551,69.151 221.551,55.151" style="fill:none;stroke-width:0.050000mm;stroke:black"/>
<polygon points="226.601,55.151 226.601,69.151 240.601,69.151 240.601,55.151" style="fill:none;stroke-width:0.050000mm;stroke:black"/>
<polygon points="245.651,55.151 245.651,69.151 259.650,69.151 259.650,55.151" style="fill:none;stroke-width:0.050000mm;stroke:black"/>
<polygon points="298.038,55.151 298.038,69.151 312.038,69.151 312.038,55.151" style="fill:none;stroke-width:0.050000mm;stroke:black"/>
<polygon points="317.088,55.151 317.088,69.151 331.088,69.151 331.088,55.151" style="fill:none;stroke-width:0.050000mm;stroke:black"/>
<polygon points="336.138,55.151 336.138,69.151 350.138,69.151 350.138,55.151" style="fill:none;stroke-width:0.050000mm;stroke:black"/>
<polygon points="359.951,55.151 359.951,69.151 373.951,69.151 373.951,55.151" style="fill:none;stroke-width:0.050000mm;stroke:black"/>
<polygon points="379.001,55.151 379.001,69.151 393.001,69.151 393.001,55.151" style="fill:none;stroke-width:0.050000mm;stroke:black"/>
<polygon points="398.051,55.151 398.051,69.151 412.051,69.151 412.051,55.151" style="fill:none;stroke-width:0.050000mm;stroke:black"/>
<polygon points="264.701,36.101 264.701,40.801 263.176,40.801 263.176,37.571 261.451,37.571 261.451,36.651 258.150,36.651 258.150,37.571 256.426,37.571 256.426,40.801 255.601,40.801 255.601,43.601 256.426,43.601 256.426,49.871 258.150,49.871 258.150,50.851 261.451,50.851 261.451,49.871 263.176,49.871 263.176,45.401 264.701,45.401 264.701,50.101 278.701,50.101 278.701,45.401 280.226,45.401 280.226,49.871 281.951,49.871 281.951,50.851 285.251,50.851 285.251,49.871 286.976,49.871 286.976,43.601 287.801,43.601 287.801,40.801 286.976,40.801 286.976,37.571 285.251,37.571 285.251,36.651 281.951,36.651 281.951,37.571 280.226,37.571 280.226,40.801 278.701,40.801 278.701,36.101" style="fill:none;stroke-width:0.050000mm;stroke:black"/>
<polygon points="7.526,36.101 7.526,50.101 21.526,50.101 21.526,36.101" style="fill:none;stroke-width:0.050000mm;stroke:black"/>
<polygon points="26.576,36.101 26.576,50.101 40.576,50.101 40.576,36.101" style="fill:none;stroke-width:0.050000mm;stroke:black"/>
<polygon points="45.626,36.101 45.626,50.101 59.626,50.101 59.626,36.101" style="fill:none;stroke-width:0.050000mm;stroke:black"/>
<polygon points="64.676,36.101 64.676,50.101 78.676,50.101 78.676,36.101" style="fill:none;stroke-width:0.050000mm;stroke:black"/>
<polygon points="83.726,36.101 83.726,50.101 97.726,50.101 97.726,36.101" style="fill:none;stroke-width:0.050000mm;stroke:black"/>
<polygon points="102.775,36.101 102.775,50.101 116.775,50.101 116.775,36.101" style="fill:none;stroke-width:0.050000mm;stroke:black"/>
<polygon points="121.825,36.101 121.825,50.101 135.826,50.101 135.826,36.101" style="fill:none;stroke-width:0.050000mm;stroke:black"/>
<polygon points="140.876,36.101 140.876,50.101 154.876,50.101 154.876,36.101" style="fill:none;stroke-width:0.050000mm;stroke:black"/>
<polygon points="159.926,36.101 159.926,50.101 173.926,50.101 173.926,36.101" style="fill:none;stroke-width:0.050000mm;stroke:black"/>
<polygon points="178.976,36.101 178.976,50.101 192.976,50.101 192.976,36.101" style="fill:none;stroke-width:0.050000mm;stroke:black"/>
<polygon points="198.026,36.101 198.026,50.101 212.026,50.101 212.026,36.101" style="fill:none;stroke-width:0.050000mm;stroke:black"/>
<polygon points="217.076,36.101 217.076,50.101 231.076,50.101 231.076,36.101" style="fill:none;stroke-width:0.050000mm;stroke:black"/>
<polygon points="236.126,36.101 236.126,50.101 250.126,50.101 250.126,36.101" style="fill:none;stroke-width:0.050000mm;stroke:black"/>
<polygon points="298.038,36.101 298.038,50.101 312.038,50.101 312.038,36.101" style="fill:none;stroke-width:0.050000mm;stroke:black"/>
<polygon points="317.088,36.101 317.088,50.101 331.088,50.101 331.088,36.101" style="fill:none;stroke-width:0.050000mm;stroke:black"/>
<polygon points="336.138,36.101 336.138,50.101 350.138,50.101 350.138,36.101" style="fill:none;stroke-width:0.050000mm;stroke:black"/>
<polygon points="359.951,36.101 359.951,50.101 373.951,50.101 373.951,36.101" style="fill:none;stroke-width:0.050000mm;stroke:black"/>
<polygon points="379.001,36.101 379.001,50.101 393.001,50.101 393.001,36.101" style="fill:none;stroke-width:0.050000mm;stroke:black"/>
<polygon points="398.051,36.101 398.051,50.101 412.051,50.101 412.051,36.101" style="fill:none;stroke-width:0.050000mm;stroke:black"/>
<polygon points="417.101,36.101 417.101,50.101 431.101,50.101 431.101,36.101" style="fill:none;stroke-width:0.050000mm;stroke:black"/>
<polygon points="7.526,7.526 7.526,21.526 21.526,21.526 21.526,7.526" style="fill:none;stroke-width:0.050000mm;stroke:black"/>
<polygon points="45.626,7.526 45.626,21.526 59.626,21.526 59.626,7.526" style="fill:none;stroke-width:0.050000mm;stroke:black"/>
<polygon points="64.676,7.526 64.676,21.526 78.676,21.526 78.676,7.526" style="fill:none;stroke-width:0.050000mm;stroke:black"/>
<polygon points="83.726,7.526 83.726,21.526 97.726,21.526 97.726,7.526" style="fill:none;stroke-width:0.050000mm;stroke:black"/>
<polygon points="102.775,7.526 102.775,21.526 116.775,21.526 116.775,7.526" style="fill:none;stroke-width:0.050000mm;stroke:black"/>
<polygon points="131.351,7.526 131.351,21.526 145.351,21.526 145.351,7.526" style="fill:none;stroke-width:0.050000mm;stroke:black"/>
<polygon points="150.401,7.526 150.401,21.526 164.401,21.526 164.401,7.526" style="fill:none;stroke-width:0.050000mm;stroke:black"/>
<polygon points="169.451,7.526 169.451,21.526 183.451,21.526 183.451,7.526" style="fill:none;stroke-width:0.050000mm;stroke:black"/>
<polygon points="188.501,7.526 188.501,21.526 202.501,21.526 202.501,7.526" style="fill:none;stroke-width:0.050000mm;stroke:black"/>
<polygon points="217.076,7.526 217.076,21.526 231.076,21.526 231.076,7.526" style="fill:none;stroke-width:0.050000mm;stroke:black"/>
<polygon points="236.126,7.526 236.126,21.526 250.126,21.526 250.126,7.526" style="fill:none;stroke-width:0.050000mm;stroke:black"/>
<polygon points="255.176,7.526 255.176,21.526 269.176,21.526 269.176,7.526" style="fill:none;stroke-width:0.050000mm;stroke:black"/>
<polygon points="274.226,7.526 274.226,21.526 288.226,21.526 288.226,7.526" style="fill:none;stroke-width:0.050000mm;stroke:black"/>
<polygon points="298.038,7.526 298.038,21.526 312.038,21.526 312.038,7.526" style="fill:none;stroke-width:0.050000mm;stroke:black"/>
<polygon points="317.088,7.526 317.088,21.526 331.088,21.526 331.088,7.526" style="fill:none;stroke-width:0.050000mm;stroke:black"/>
<polygon points="336.138,7.526 336.138,21.526 350.138,21.526 350.138,7.526" style="fill:none;stroke-width:0.050000mm;stroke:black"/>
</svg>
